<?xml version="1.0" encoding="utf-8"?>
<!-- Generator: Adobe Illustrator 19.0.0, SVG Export Plug-In . SVG Version: 6.00 Build 0)  -->
<svg version="1.1" id="Layer_1" xmlns="http://www.w3.org/2000/svg" xmlns:xlink="http://www.w3.org/1999/xlink" x="0px" y="0px"
	 viewBox="0 0 409.6 78.7" style="enable-background:new 0 0 409.6 78.7;" xml:space="preserve">
<style type="text/css">
	.st0{clip-path:url(#SVGID_2_);}
	.st1{clip-path:url(#SVGID_4_);}
	.st2{opacity:0.4;clip-path:url(#SVGID_6_);}
	.st3{clip-path:url(#SVGID_8_);}
	.st4{clip-path:url(#SVGID_10_);}
	.st5{clip-path:url(#SVGID_12_);}
	.st6{clip-path:url(#SVGID_14_);}
	.st7{clip-path:url(#SVGID_16_);}
	.st8{clip-path:url(#SVGID_18_);fill:url(#SVGID_19_);}
	.st9{clip-path:url(#SVGID_21_);fill:url(#SVGID_22_);}
	.st10{clip-path:url(#SVGID_24_);fill:url(#SVGID_25_);}
	.st11{clip-path:url(#SVGID_27_);fill:url(#SVGID_28_);}
	.st12{clip-path:url(#SVGID_30_);fill:url(#SVGID_31_);}
	.st13{clip-path:url(#SVGID_33_);fill:url(#SVGID_34_);}
	.st14{clip-path:url(#SVGID_36_);fill:url(#SVGID_37_);}
	.st15{clip-path:url(#SVGID_39_);fill:url(#SVGID_40_);}
	.st16{clip-path:url(#SVGID_42_);fill:url(#SVGID_43_);}
	.st17{clip-path:url(#SVGID_45_);fill:#FFFFFF;}
</style>
<g>
	<defs>
		<rect id="SVGID_1_" width="409.6" height="78.7"/>
	</defs>
	<clipPath id="SVGID_2_">
		<use xlink:href="#SVGID_1_"  style="overflow:visible;"/>
	</clipPath>
	<g class="st0">
		<defs>
			<rect id="SVGID_3_" y="0" width="409.6" height="78.7"/>
		</defs>
		<clipPath id="SVGID_4_">
			<use xlink:href="#SVGID_3_"  style="overflow:visible;"/>
		</clipPath>
		<g class="st1">
			<g>
				<defs>
					<rect id="SVGID_5_" width="93.6" height="78.7"/>
				</defs>
				<clipPath id="SVGID_6_">
					<use xlink:href="#SVGID_5_"  style="overflow:visible;"/>
				</clipPath>
				<g class="st2">
					<g>
						<defs>
							<rect id="SVGID_7_" width="93.6" height="78.7"/>
						</defs>
						<clipPath id="SVGID_8_">
							<use xlink:href="#SVGID_7_"  style="overflow:visible;"/>
						</clipPath>
						<g class="st3">
							<g>
								<defs>
									<rect id="SVGID_9_" x="14.9" y="14.9" width="78.7" height="63.8"/>
								</defs>
								<clipPath id="SVGID_10_">
									<use xlink:href="#SVGID_9_"  style="overflow:visible;"/>
								</clipPath>
								<path class="st4" d="M93.6,40.5H81c0,0,0,0,0,0.1c-0.7,14.5-12.7,25.5-26.7,25.5c-14.9,0-26.8-12.4-26.8-26.8
									c0-10.3,6.1-19.8,15.3-24.2C28,13,14.9,24.7,14.9,39.3c0,21.3,16.9,38.7,38.2,39.3C74.8,79.3,93,62.2,93.6,40.5"/>
							</g>
						</g>
						<g class="st3">
							<g>
								<defs>
									<rect id="SVGID_11_" x="48" y="40.5" width="30.6" height="23.3"/>
								</defs>
								<clipPath id="SVGID_12_">
									<use xlink:href="#SVGID_11_"  style="overflow:visible;"/>
								</clipPath>
								<path class="st5" d="M50.8,63.5c14.2,2.1,27.2-8.8,27.9-23v0l-30.6,0v12.6h14.4C60.7,55.5,57.6,60.3,50.8,63.5"/>
							</g>
						</g>
						<g class="st3">
							<g>
								<defs>
									<rect id="SVGID_13_" width="77.7" height="78.7"/>
								</defs>
								<clipPath id="SVGID_14_">
									<use xlink:href="#SVGID_13_"  style="overflow:visible;"/>
								</clipPath>
								<path class="st6" d="M12.6,39.3c0-14.8,12-26.8,26.8-26.8c11.2,0,21.6,7.3,25.3,18.1h13.1c0-0.1,0-0.1,0-0.2
									C73.6,12.7,57.7,0,39.3,0C17.6,0,0,17.6,0,39.3c0,20.6,16.1,39.4,40.5,39.4C24.1,73,12.6,57.3,12.6,39.3"/>
							</g>
						</g>
						<g class="st3">
							<g>
								<defs>
									<rect id="SVGID_15_" x="53.1" width="39.6" height="30.7"/>
								</defs>
								<clipPath id="SVGID_16_">
									<use xlink:href="#SVGID_15_"  style="overflow:visible;"/>
								</clipPath>
								<path class="st7" d="M80.1,30.7h12.5C88.7,12.8,72.8,0,54.3,0h-1.2C67.1,4.9,77.2,16.7,80.1,30.7"/>
							</g>
						</g>
					</g>
				</g>
			</g>
		</g>
	</g>
	<g class="st0">
		<defs>
			<path id="SVGID_17_" d="M14.9,39.3c0,21.3,16.9,38.7,38.2,39.3C74.8,79.3,93,62.2,93.6,40.5H81c0,0,0,0,0,0.1
				c-0.7,14.5-12.7,25.5-26.7,25.5c-14.9,0-26.8-12.4-26.8-26.8c0-10.3,6.1-19.8,15.3-24.2c-1.2-0.2-2.4-0.3-3.5-0.3
				C26,14.9,14.9,25.8,14.9,39.3"/>
		</defs>
		<clipPath id="SVGID_18_">
			<use xlink:href="#SVGID_17_"  style="overflow:visible;"/>
		</clipPath>
		
			<linearGradient id="SVGID_19_" gradientUnits="userSpaceOnUse" x1="0" y1="78.6933" x2="1" y2="78.6933" gradientTransform="matrix(-52.7459 -58.1099 -58.1099 52.7459 4658.3315 -4069.2324)">
			<stop  offset="0" style="stop-color:#FFFFFF"/>
			<stop  offset="1.015230e-002" style="stop-color:#FFFFFF"/>
			<stop  offset="0.3756" style="stop-color:#DCE1E2"/>
			<stop  offset="0.5926" style="stop-color:#E0E4E5"/>
			<stop  offset="0.8276" style="stop-color:#EDEFEF"/>
			<stop  offset="1" style="stop-color:#FFFFFF"/>
		</linearGradient>
		<polygon class="st8" points="50.5,118.5 -17.1,44 58.1,-24.2 125.7,50.2 		"/>
	</g>
	<g class="st0">
		<defs>
			<path id="SVGID_20_" d="M48,53.1h14.4c-1.7,2.4-4.8,7.2-11.6,10.4c14.3,2,27.2-8.8,27.9-23v0l-30.6,0V53.1z"/>
		</defs>
		<clipPath id="SVGID_21_">
			<use xlink:href="#SVGID_20_"  style="overflow:visible;"/>
		</clipPath>
		
			<linearGradient id="SVGID_22_" gradientUnits="userSpaceOnUse" x1="0" y1="78.6828" x2="1" y2="78.6828" gradientTransform="matrix(80.8932 92.5133 92.5133 -80.8932 -7269.1045 6357.0322)">
			<stop  offset="0" style="stop-color:#B28331"/>
			<stop  offset="0.2258" style="stop-color:#F9E775"/>
			<stop  offset="0.586" style="stop-color:#895E26"/>
			<stop  offset="0.7849" style="stop-color:#F6E16F"/>
			<stop  offset="1" style="stop-color:#B1812E"/>
		</linearGradient>
		<polygon class="st9" points="65.4,25.3 91.1,54.7 61.3,80.7 35.6,51.4 		"/>
	</g>
	<g class="st0">
		<defs>
			<path id="SVGID_23_" d="M39.3,0C17.6,0,0,17.6,0,39.3c0,20.6,16.1,39.4,40.5,39.4C24.1,73,12.6,57.3,12.6,39.3
				c0-14.8,12-26.8,26.8-26.8c11.2,0,21.6,7.3,25.3,18.1h13.1c0-0.1,0-0.1,0-0.2C73.6,12.7,57.7,0,39.3,0z"/>
		</defs>
		<clipPath id="SVGID_24_">
			<use xlink:href="#SVGID_23_"  style="overflow:visible;"/>
		</clipPath>
		
			<linearGradient id="SVGID_25_" gradientUnits="userSpaceOnUse" x1="0" y1="78.6937" x2="1" y2="78.6937" gradientTransform="matrix(80.9022 92.5236 92.5236 -80.9022 -7278.0278 6364.8223)">
			<stop  offset="0" style="stop-color:#B28331"/>
			<stop  offset="0.2258" style="stop-color:#F9E775"/>
			<stop  offset="0.586" style="stop-color:#895E26"/>
			<stop  offset="0.7849" style="stop-color:#F6E16F"/>
			<stop  offset="1" style="stop-color:#B1812E"/>
		</linearGradient>
		<polygon class="st10" points="44.1,-38.5 116.7,44.6 33.7,117.2 -39,34.1 		"/>
	</g>
	<g class="st0">
		<defs>
			<path id="SVGID_26_" d="M53.1,0c13.9,4.9,24.1,16.7,27,30.7h12.5C88.7,12.8,72.8,0,54.3,0H53.1z"/>
		</defs>
		<clipPath id="SVGID_27_">
			<use xlink:href="#SVGID_26_"  style="overflow:visible;"/>
		</clipPath>
		
			<linearGradient id="SVGID_28_" gradientUnits="userSpaceOnUse" x1="0" y1="78.7253" x2="1" y2="78.7253" gradientTransform="matrix(-52.7449 -58.1087 -58.1087 52.7449 4686.1304 -4094.4658)">
			<stop  offset="0" style="stop-color:#FFFFFF"/>
			<stop  offset="1.015230e-002" style="stop-color:#FFFFFF"/>
			<stop  offset="0.3756" style="stop-color:#DCE1E2"/>
			<stop  offset="0.5926" style="stop-color:#E0E4E5"/>
			<stop  offset="0.8276" style="stop-color:#EDEFEF"/>
			<stop  offset="1" style="stop-color:#FFFFFF"/>
		</linearGradient>
		<polygon class="st11" points="71,50.4 37.8,13.9 74.8,-19.7 108,16.8 		"/>
	</g>
	<g class="st0">
		<defs>
			<path id="SVGID_29_" d="M53.1,78.2C32,77.6,15.4,60.5,15.4,39.3c0-6.4,2.5-12.4,7-16.9c4.5-4.5,10.5-7,16.8-7
				c0.6,0,1.2,0,1.8,0.1C32.5,20.3,27,29.5,27,39.3c0,15,12.2,27.3,27.3,27.3c14.5,0,26.3-11.2,27.2-25.6h11.6
				c-0.9,20.5-18.1,37.2-38.7,37.2C53.9,78.2,53.5,78.2,53.1,78.2 M14.9,39.3c0,21.3,16.9,38.7,38.2,39.3c0.4,0,0.8,0,1.2,0
				c21.2,0,38.6-16.9,39.3-38.2H81c0,0,0,0,0,0.1c-0.7,14.5-12.7,25.5-26.7,25.5c-14.9,0-26.8-12.4-26.8-26.8
				c0-10.3,6.1-19.8,15.3-24.2c-1.2-0.2-2.4-0.3-3.5-0.3C26,14.9,14.9,25.8,14.9,39.3"/>
		</defs>
		<clipPath id="SVGID_30_">
			<use xlink:href="#SVGID_29_"  style="overflow:visible;"/>
		</clipPath>
		
			<linearGradient id="SVGID_31_" gradientUnits="userSpaceOnUse" x1="0" y1="78.7437" x2="1" y2="78.7437" gradientTransform="matrix(-29.0071 50.2417 50.2417 29.0071 -3889.3928 -2259.072)">
			<stop  offset="0" style="stop-color:#DCE1E2"/>
			<stop  offset="0.2258" style="stop-color:#FFFFFF"/>
			<stop  offset="0.586" style="stop-color:#DCE1E2"/>
			<stop  offset="0.7849" style="stop-color:#FFFFFF"/>
			<stop  offset="1" style="stop-color:#DCE1E2"/>
		</linearGradient>
		<polygon class="st12" points="121.2,30.9 73.9,112.8 -12.7,62.7 34.6,-19.1 		"/>
	</g>
	<g class="st0">
		<defs>
			<path id="SVGID_32_" d="M48.5,41h29.6c-0.9,12.5-11.2,22.2-23.9,22.2c-0.6,0-1.2,0-1.7-0.1c5.4-3,8.2-6.9,9.9-9.3l0.4-0.5
				l0.6-0.8h-1H48.5V41z M48,40.5v12.6h14.4c-1.7,2.4-4.8,7.2-11.6,10.4c1.2,0.2,2.3,0.2,3.5,0.2c12.8,0,23.8-10.2,24.4-23.2v0v0H48
				z"/>
		</defs>
		<clipPath id="SVGID_33_">
			<use xlink:href="#SVGID_32_"  style="overflow:visible;"/>
		</clipPath>
		
			<linearGradient id="SVGID_34_" gradientUnits="userSpaceOnUse" x1="1.320320e-005" y1="78.6967" x2="1" y2="78.6967" gradientTransform="matrix(30.6258 0 0 -30.6258 48.0366 2462.2859)">
			<stop  offset="0" style="stop-color:#B28331"/>
			<stop  offset="0.2258" style="stop-color:#F9E775"/>
			<stop  offset="0.586" style="stop-color:#895E26"/>
			<stop  offset="0.7849" style="stop-color:#F6E16F"/>
			<stop  offset="1" style="stop-color:#B1812E"/>
		</linearGradient>
		<rect x="48" y="40.5" class="st13" width="30.6" height="23.2"/>
	</g>
	<g class="st0">
		<defs>
			<path id="SVGID_35_" d="M0.5,39.3c0-21.4,17.4-38.8,38.8-38.8c17.8,0,33.6,12.4,37.7,29.7H65c-3.8-10.7-14.3-18.1-25.7-18.1
				c-15,0-27.3,12.2-27.3,27.3c0,16.9,10.1,32.2,25.5,38.8C14.3,76.6,0.5,57.7,0.5,39.3 M39.3,0C17.6,0,0,17.6,0,39.3
				c0,20.6,16.1,39.4,40.5,39.4C24.1,73,12.6,57.3,12.6,39.3c0-14.8,12-26.8,26.8-26.8c11.2,0,21.6,7.3,25.3,18.1h13.1
				c0-0.1,0-0.1,0-0.2C73.6,12.7,57.7,0,39.3,0z"/>
		</defs>
		<clipPath id="SVGID_36_">
			<use xlink:href="#SVGID_35_"  style="overflow:visible;"/>
		</clipPath>
		
			<linearGradient id="SVGID_37_" gradientUnits="userSpaceOnUse" x1="9.094947e-013" y1="78.6967" x2="1" y2="78.6967" gradientTransform="matrix(77.7405 0 0 -77.7405 0 6157.2695)">
			<stop  offset="0" style="stop-color:#B28331"/>
			<stop  offset="0.2258" style="stop-color:#F9E775"/>
			<stop  offset="0.586" style="stop-color:#895E26"/>
			<stop  offset="0.7849" style="stop-color:#F6E16F"/>
			<stop  offset="1" style="stop-color:#B1812E"/>
		</linearGradient>
		<rect y="0" class="st14" width="77.7" height="78.7"/>
	</g>
	<g class="st0">
		<defs>
			<path id="SVGID_38_" d="M55.9,0.5C73.1,1.3,88,13.5,92,30.2H80.5C77.6,17,68.4,5.9,55.9,0.5 M53.1,0c13.9,4.9,24.1,16.7,27,30.7
				h12.5C88.7,12.8,72.8,0,54.3,0H53.1z"/>
		</defs>
		<clipPath id="SVGID_39_">
			<use xlink:href="#SVGID_38_"  style="overflow:visible;"/>
		</clipPath>
		
			<linearGradient id="SVGID_40_" gradientUnits="userSpaceOnUse" x1="1.350298e-005" y1="78.6967" x2="1" y2="78.6967" gradientTransform="matrix(39.5511 0 0 -39.5511 53.1215 3127.8987)">
			<stop  offset="0" style="stop-color:#DCE1E2"/>
			<stop  offset="0.2258" style="stop-color:#FFFFFF"/>
			<stop  offset="0.586" style="stop-color:#DCE1E2"/>
			<stop  offset="0.7849" style="stop-color:#FFFFFF"/>
			<stop  offset="1" style="stop-color:#DCE1E2"/>
		</linearGradient>
		<rect x="53.1" y="0" class="st15" width="39.5" height="30.7"/>
	</g>
	<g class="st0">
		<defs>
			<path id="SVGID_41_" d="M134.2,2.5c-3.4,0-6.6,0.6-9.5,1.7c-2.9,1.1-5.4,2.8-7.5,4.8c-2.1,2.1-3.8,4.6-5,7.6
				c-1.2,3-1.8,6.2-1.8,9.8c0,3.5,0.6,6.8,1.8,9.9c1.2,3,2.8,5.7,5,7.9c2.1,2.2,4.6,4,7.5,5.2c2.9,1.3,6,1.9,9.5,1.9h29.5V23H133
				v7.2h22.1v12.7h-20.9c-2.2,0-4.2-0.4-6.1-1.2c-1.9-0.8-3.5-1.9-4.8-3.3c-1.3-1.4-2.4-3.1-3.2-5.1c-0.8-2-1.1-4.1-1.1-6.4
				c0-2.3,0.4-4.5,1.1-6.4c0.8-1.9,1.8-3.6,3.2-5c1.3-1.4,2.9-2.5,4.8-3.3c1.9-0.8,3.9-1.2,6.1-1.2h26.5V2.5H134.2z M171.6,2.5v48.9
				H213v-8.5h-32.9V2.5H171.6z M235.4,41.7c-1.9-0.8-3.5-1.9-4.8-3.3c-1.3-1.4-2.4-3.1-3.2-5.1c-0.8-2-1.1-4.1-1.1-6.4
				c0-2.3,0.4-4.5,1.1-6.4c0.8-1.9,1.8-3.6,3.2-5c1.3-1.4,2.9-2.5,4.8-3.3c1.9-0.8,3.9-1.2,6.1-1.2h11.9c2.3,0,4.3,0.4,6.2,1.2
				c1.9,0.8,3.5,1.9,4.9,3.3c1.4,1.4,2.4,3.1,3.2,5c0.8,2,1.1,4.1,1.1,6.4c0,2.3-0.4,4.4-1.1,6.4c-0.8,2-1.8,3.7-3.2,5.1
				c-1.4,1.4-3,2.5-4.9,3.3c-1.9,0.8-3.9,1.2-6.2,1.2h-11.9C239.3,42.9,237.3,42.5,235.4,41.7 M241.5,2.5c-3.4,0-6.6,0.6-9.5,1.7
				c-2.9,1.1-5.4,2.8-7.5,4.8c-2.1,2.1-3.8,4.6-5,7.6c-1.2,3-1.8,6.2-1.8,9.8c0,3.5,0.6,6.8,1.8,9.9c1.2,3,2.9,5.7,5,7.9
				c2.1,2.2,4.7,4,7.5,5.2c2.9,1.3,6.1,1.9,9.5,1.9h11.9c3.5,0,6.7-0.6,9.6-1.9c2.9-1.3,5.4-3,7.6-5.2c2.2-2.2,3.8-4.9,5-7.9
				c1.2-3,1.8-6.4,1.8-9.9c0-3.5-0.6-6.8-1.7-9.7c-1.2-2.9-2.8-5.5-4.9-7.6c-2.1-2.1-4.6-3.8-7.6-4.9c-3-1.2-6.2-1.7-9.7-1.7H241.5z
				 M306.6,2.5c-3.4,0-6.6,0.6-9.5,1.7c-2.9,1.1-5.4,2.8-7.5,4.8c-2.1,2.1-3.8,4.6-5,7.6c-1.2,3-1.8,6.2-1.8,9.8
				c0,3.5,0.6,6.8,1.8,9.9c1.2,3,2.8,5.7,5,7.9c2.1,2.2,4.6,4,7.5,5.2c2.9,1.3,6.1,1.9,9.5,1.9h26.5v-8.5h-26.5
				c-2.2,0-4.2-0.4-6.1-1.2c-1.9-0.8-3.5-1.9-4.8-3.3c-1.3-1.4-2.4-3.1-3.1-5.1c-0.8-2-1.1-4.1-1.1-6.4c0-2.3,0.4-4.5,1.1-6.4
				c0.8-1.9,1.8-3.6,3.1-5c1.4-1.4,3-2.5,4.8-3.3c1.9-0.8,3.9-1.2,6.1-1.2h26.5V2.5H306.6z M340.6,51.5h8.5V2.5h-8.5V51.5z M359,3.3
				c-0.8,0.9-1.2,2.2-1.2,3.7v44.4h8.1V15.7l34.4,34.6c1.2,1.2,2.5,1.8,3.9,1.8c1.2,0,2.3-0.5,3-1.3c0.8-0.9,1.2-2.2,1.2-3.8V2.1
				h-8.1v35.8L365.9,3.7c-0.6-0.6-1.2-1.1-1.8-1.3c-0.6-0.3-1.2-0.4-1.8-0.4C360.9,1.9,359.8,2.4,359,3.3"/>
		</defs>
		<clipPath id="SVGID_42_">
			<use xlink:href="#SVGID_41_"  style="overflow:visible;"/>
		</clipPath>
		
			<linearGradient id="SVGID_43_" gradientUnits="userSpaceOnUse" x1="0" y1="78.672" x2="1" y2="78.672" gradientTransform="matrix(91.0112 157.636 157.636 -91.0112 -12185.7471 7111.4116)">
			<stop  offset="0" style="stop-color:#E2E1E6"/>
			<stop  offset="0.1565" style="stop-color:#E8E8EC"/>
			<stop  offset="0.3018" style="stop-color:#FFFFFF"/>
			<stop  offset="0.6613" style="stop-color:#FFFFFF"/>
			<stop  offset="1" style="stop-color:#E1E1E6"/>
			<stop  offset="1" style="stop-color:#E1E1E6"/>
		</linearGradient>
		<polygon class="st16" points="334,-127.1 430.2,39.5 184.9,181.1 88.7,14.5 		"/>
	</g>
	<g class="st0">
		<defs>
			<rect id="SVGID_44_" y="0" width="409.6" height="78.7"/>
		</defs>
		<clipPath id="SVGID_45_">
			<use xlink:href="#SVGID_44_"  style="overflow:visible;"/>
		</clipPath>
		<path class="st17" d="M126.1,69.4c0,1.4-0.4,2.5-1.1,3.3c-0.9,1-2.1,1.5-3.4,1.5c-1.3,0-2.4-0.4-3.3-1.3c-0.6-0.6-0.9-1.2-1.1-2
			c-0.1-0.5-0.1-1.6-0.1-3.2c0-1.6,0-2.6,0.1-3.2c0.2-0.8,0.5-1.5,1.1-2c0.9-0.9,2-1.3,3.3-1.3c1.2,0,2.2,0.4,3,1.1
			c0.8,0.7,1.3,1.6,1.5,2.7h-1.4c-0.2-0.8-0.6-1.5-1.1-1.9c-0.6-0.5-1.2-0.7-2-0.7c-0.9,0-1.6,0.3-2.2,0.9c-0.4,0.4-0.6,0.9-0.8,1.5
			c-0.1,0.5-0.2,1.5-0.2,2.9c0,1.4,0,2.4,0.1,2.9c0.1,0.6,0.4,1.1,0.8,1.5c0.6,0.6,1.3,0.9,2.2,0.9c1,0,1.8-0.4,2.4-1.1
			c0.5-0.6,0.7-1.3,0.7-2.3v-1h-3.1v-1.2h4.5V69.4z"/>
		<polygon class="st17" points="137.2,74.1 129.3,74.1 129.3,61.3 130.7,61.3 130.7,72.9 137.2,72.9 		"/>
		<path class="st17" d="M148.1,67.7c0,1.6,0,2.6-0.2,3.2c-0.2,0.8-0.5,1.5-1.1,2c-0.9,0.9-2,1.3-3.3,1.3c-1.3,0-2.4-0.4-3.3-1.3
			c-0.5-0.6-0.9-1.2-1.1-2c-0.1-0.5-0.1-1.6-0.1-3.2c0-1.6,0-2.6,0.1-3.2c0.2-0.8,0.5-1.5,1.1-2c0.9-0.9,2-1.3,3.3-1.3
			c1.3,0,2.4,0.4,3.3,1.3c0.6,0.6,0.9,1.2,1.1,2C148,65,148.1,66.1,148.1,67.7 M146.7,67.7c0-1.4,0-2.4-0.1-2.9
			c-0.1-0.6-0.4-1.1-0.8-1.5c-0.6-0.6-1.3-0.9-2.2-0.9c-0.9,0-1.6,0.3-2.2,0.9c-0.4,0.4-0.6,0.9-0.8,1.5c-0.1,0.5-0.1,1.5-0.1,2.9
			c0,1.4,0,2.4,0.1,2.9c0.1,0.6,0.4,1.1,0.8,1.5c0.6,0.6,1.3,0.9,2.2,0.9c0.9,0,1.6-0.3,2.2-0.9c0.4-0.4,0.6-0.9,0.8-1.5
			C146.7,70,146.7,69.1,146.7,67.7"/>
		<path class="st17" d="M160.1,70.5c0,1.1-0.3,2-1,2.6c-0.7,0.6-1.6,0.9-2.8,0.9h-5V61.3h4.8c1.1,0,2,0.3,2.7,0.9
			c0.7,0.6,1,1.4,1,2.5c0,0.7-0.2,1.2-0.5,1.7c-0.4,0.5-0.8,0.9-1.4,1.1C159.4,68,160.1,69,160.1,70.5 M158.5,64.7
			c0-0.7-0.2-1.3-0.7-1.7c-0.5-0.4-1.1-0.6-1.8-0.6h-3.3v4.4h3.3c0.7,0,1.3-0.2,1.8-0.6C158.3,66,158.5,65.4,158.5,64.7 M158.7,70.5
			c0-0.7-0.2-1.3-0.7-1.7c-0.5-0.4-1.1-0.6-1.9-0.6h-3.5v4.7h3.5c0.8,0,1.4-0.2,1.9-0.6C158.5,71.8,158.7,71.2,158.7,70.5"/>
		<path class="st17" d="M172.2,74.1h-1.5l-1-2.9h-5.6l-1,2.9h-1.5l4.7-12.8h1.2L172.2,74.1z M169.4,70l-2.4-6.8l-2.4,6.8H169.4z"/>
		<polygon class="st17" points="182.2,74.1 174.3,74.1 174.3,61.3 175.7,61.3 175.7,72.9 182.2,72.9 		"/>
		<path class="st17" d="M197.5,70.4c-0.2,1.2-0.7,2.1-1.5,2.8c-0.8,0.7-1.8,1-2.9,1c-1.3,0-2.4-0.4-3.3-1.3c-0.6-0.6-0.9-1.2-1.1-2
			c-0.1-0.5-0.1-1.6-0.1-3.2s0-2.6,0.1-3.2c0.2-0.8,0.5-1.5,1.1-2c0.9-0.9,2-1.3,3.3-1.3c1.2,0,2.1,0.3,2.9,1
			c0.8,0.7,1.3,1.6,1.5,2.8h-1.4c-0.2-0.8-0.5-1.4-1.1-1.9c-0.5-0.5-1.2-0.7-2-0.7c-0.9,0-1.6,0.3-2.2,0.9c-0.4,0.4-0.6,0.9-0.8,1.5
			c-0.1,0.5-0.1,1.5-0.1,2.9c0,1.4,0,2.4,0.1,2.9c0.1,0.6,0.4,1.1,0.8,1.5c0.6,0.6,1.3,0.9,2.2,0.9c0.8,0,1.5-0.2,2-0.7
			c0.5-0.5,0.9-1.1,1.1-1.9H197.5z"/>
		<path class="st17" d="M209,67.7c0,1.6,0,2.6-0.2,3.2c-0.2,0.8-0.5,1.5-1.1,2c-0.9,0.9-2,1.3-3.3,1.3c-1.3,0-2.4-0.4-3.3-1.3
			c-0.6-0.6-0.9-1.2-1.1-2c-0.1-0.5-0.1-1.6-0.1-3.2c0-1.6,0-2.6,0.1-3.2c0.2-0.8,0.5-1.5,1.1-2c0.9-0.9,2-1.3,3.3-1.3
			c1.3,0,2.4,0.4,3.3,1.3c0.6,0.6,0.9,1.2,1.1,2C209,65,209,66.1,209,67.7 M207.7,67.7c0-1.4,0-2.4-0.1-2.9
			c-0.1-0.6-0.4-1.1-0.8-1.5c-0.6-0.6-1.3-0.9-2.2-0.9c-0.9,0-1.6,0.3-2.2,0.9c-0.4,0.4-0.6,0.9-0.8,1.5c-0.1,0.5-0.1,1.5-0.1,2.9
			c0,1.4,0,2.4,0.1,2.9c0.1,0.6,0.4,1.1,0.8,1.5c0.6,0.6,1.3,0.9,2.2,0.9c0.9,0,1.6-0.3,2.2-0.9c0.4-0.4,0.6-0.9,0.8-1.5
			C207.6,70,207.7,69.1,207.7,67.7"/>
		<polygon class="st17" points="223.2,74.1 221.8,74.1 221.8,64.3 218.3,72.1 217.2,72.1 213.6,64.3 213.6,74.1 212.2,74.1 
			212.2,61.3 213.6,61.3 217.8,70.4 221.8,61.3 223.2,61.3 		"/>
		<polygon class="st17" points="237.9,74.1 236.5,74.1 236.5,64.3 233,72.1 231.9,72.1 228.3,64.3 228.3,74.1 226.9,74.1 
			226.9,61.3 228.3,61.3 232.5,70.4 236.5,61.3 237.9,61.3 		"/>
		<path class="st17" d="M250.1,67.7c0,1.6,0,2.6-0.2,3.2c-0.1,0.8-0.5,1.5-1,2c-0.9,0.9-2,1.3-3.3,1.3c-1.3,0-2.4-0.4-3.3-1.3
			c-0.6-0.6-0.9-1.2-1.1-2c-0.1-0.5-0.1-1.6-0.1-3.2c0-1.6,0-2.6,0.1-3.2c0.2-0.8,0.5-1.5,1.1-2c0.9-0.9,2-1.3,3.3-1.3
			c1.3,0,2.4,0.4,3.3,1.3c0.5,0.6,0.9,1.2,1,2C250,65,250.1,66.1,250.1,67.7 M248.7,67.7c0-1.4,0-2.4-0.1-2.9
			c-0.1-0.6-0.4-1.1-0.8-1.5c-0.6-0.6-1.3-0.9-2.2-0.9c-0.9,0-1.6,0.3-2.2,0.9c-0.4,0.4-0.6,0.9-0.8,1.5c-0.1,0.5-0.1,1.5-0.1,2.9
			c0,1.4,0,2.4,0.1,2.9c0.1,0.6,0.4,1.1,0.8,1.5c0.6,0.6,1.3,0.9,2.2,0.9c0.9,0,1.6-0.3,2.2-0.9c0.4-0.4,0.7-0.9,0.8-1.5
			C248.7,70,248.7,69.1,248.7,67.7"/>
		<path class="st17" d="M262.2,67.5c0,1.3,0,2.3-0.1,2.8c-0.2,1.1-0.6,1.9-1.1,2.5c-0.8,0.8-1.9,1.2-3.2,1.2h-4.4V61.3h4.4
			c1.4,0,2.5,0.4,3.2,1.2c0.6,0.6,1,1.4,1.1,2.4C262.1,65.3,262.2,66.2,262.2,67.5 M260.8,67.5c0-1.1,0-1.9-0.1-2.3
			c-0.1-0.8-0.4-1.4-0.8-1.8c-0.6-0.6-1.5-0.9-2.5-0.9h-2.8v10.4h2.8c1.1,0,1.9-0.3,2.5-0.9c0.4-0.4,0.6-1,0.8-1.9
			C260.8,69.5,260.8,68.7,260.8,67.5"/>
		<rect x="265.4" y="61.3" class="st17" width="1.4" height="12.8"/>
		<polygon class="st17" points="277.9,62.5 274.2,62.5 274.2,74.1 272.9,74.1 272.9,62.5 269.2,62.5 269.2,61.3 277.9,61.3 		"/>
		<polygon class="st17" points="287.6,61.3 283.8,68.8 283.8,74.1 282.4,74.1 282.4,68.8 278.6,61.3 280.1,61.3 283.1,67.4 
			286.1,61.3 		"/>
		<rect x="294" y="61.3" class="st17" width="1.4" height="12.8"/>
		<polygon class="st17" points="308.6,74.1 307.3,74.1 300.5,63.8 300.5,74.1 299.1,74.1 299.1,61.3 300.4,61.3 307.2,71.5 
			307.2,61.3 308.6,61.3 		"/>
		<polygon class="st17" points="320.1,61.3 315.9,74.1 314.8,74.1 310.6,61.3 312,61.3 315.3,71.6 318.7,61.3 		"/>
		<polygon class="st17" points="330.1,74.1 322.1,74.1 322.1,61.3 330.1,61.3 330.1,62.5 323.5,62.5 323.5,67 329.1,67 329.1,68.2 
			323.5,68.2 323.5,72.9 330.1,72.9 		"/>
		<path class="st17" d="M340.6,70.5c0,1.1-0.4,2-1.2,2.7c-0.8,0.6-1.9,1-3.2,1c-1.8,0-3.3-0.6-4.4-1.7l0.9-0.9
			c0.9,0.9,2.1,1.4,3.5,1.4c0.9,0,1.7-0.2,2.2-0.6c0.5-0.4,0.8-1,0.8-1.7c0-0.7-0.2-1.2-0.6-1.6c-0.3-0.3-0.9-0.5-1.7-0.6l-1.5-0.2
			c-2.2-0.4-3.3-1.5-3.3-3.4c0-1.1,0.4-2,1.1-2.6c0.7-0.7,1.7-1,3-1c1.5,0,2.8,0.5,3.8,1.4l-0.9,0.9c-0.8-0.7-1.8-1.1-3-1.1
			c-0.8,0-1.5,0.2-2,0.6c-0.5,0.4-0.7,1-0.7,1.7c0,0.6,0.2,1.1,0.6,1.5c0.4,0.3,1,0.6,1.7,0.7l1.4,0.2c1.1,0.2,1.8,0.5,2.3,0.9
			C340.3,68.6,340.6,69.5,340.6,70.5"/>
		<polygon class="st17" points="350.9,62.5 347.2,62.5 347.2,74.1 345.9,74.1 345.9,62.5 342.2,62.5 342.2,61.3 350.9,61.3 		"/>
		<polygon class="st17" points="364.3,74.1 363,74.1 363,64.3 359.4,72.1 358.3,72.1 354.7,64.3 354.7,74.1 353.3,74.1 353.3,61.3 
			354.7,61.3 358.9,70.4 363,61.3 364.3,61.3 		"/>
		<polygon class="st17" points="376,74.1 368,74.1 368,61.3 376,61.3 376,62.5 369.4,62.5 369.4,67 375,67 375,68.2 369.4,68.2 
			369.4,72.9 376,72.9 		"/>
		<polygon class="st17" points="388.3,74.1 387,74.1 380.2,63.8 380.2,74.1 378.8,74.1 378.8,61.3 380.1,61.3 386.9,71.5 
			386.9,61.3 388.3,61.3 		"/>
		<polygon class="st17" points="399.4,62.5 395.7,62.5 395.7,74.1 394.4,74.1 394.4,62.5 390.7,62.5 390.7,61.3 399.4,61.3 		"/>
		<path class="st17" d="M409.6,70.5c0,1.1-0.4,2-1.2,2.7c-0.8,0.6-1.9,1-3.2,1c-1.8,0-3.3-0.6-4.4-1.7l0.9-0.9
			c0.9,0.9,2.1,1.4,3.5,1.4c0.9,0,1.7-0.2,2.2-0.6c0.5-0.4,0.8-1,0.8-1.7c0-0.7-0.2-1.2-0.6-1.6c-0.3-0.3-0.9-0.5-1.7-0.6l-1.5-0.2
			c-2.2-0.4-3.3-1.5-3.3-3.4c0-1.1,0.4-2,1.1-2.6c0.7-0.7,1.7-1,3-1c1.5,0,2.8,0.5,3.8,1.4l-0.9,0.9c-0.8-0.7-1.8-1.1-3-1.1
			c-0.8,0-1.5,0.2-2,0.6c-0.5,0.4-0.7,1-0.7,1.7c0,0.6,0.2,1.1,0.6,1.5c0.4,0.3,1,0.6,1.7,0.7l1.4,0.2c1.1,0.2,1.8,0.5,2.3,0.9
			C409.2,68.6,409.6,69.5,409.6,70.5"/>
	</g>
</g>
</svg>
