<svg xmlns="http://www.w3.org/2000/svg" width="92" height="79" viewBox="0 0 92 79">
  <defs>
    <style>
      .cls-1 {
        fill: #f4f9fb;
        fill-rule: evenodd;
      }
    </style>
  </defs>
  <path id="Forma_1" data-name="Forma 1" class="cls-1" d="M514.978,7110.8c0-.01,0-0.02,0-0.03a21.936,21.936,0,1,0-14.808,20.57c-4.927,28.1-26.969,46.21-6.536,31.3C516.292,7146.11,515,7111.43,514.978,7110.8ZM444.9,7132.53a21.914,21.914,0,0,0,7.093-1.19c-4.929,28.1-26.971,46.21-6.538,31.3,22.657-16.53,21.369-51.21,21.344-51.84,0-.01,0-0.02,0-0.03A21.9,21.9,0,1,0,444.9,7132.53Z" transform="translate(-423 -7089)"/>
</svg>
